<?xml version="1.0" encoding="UTF-8"?>
<svg version="1.1" xmlns="http://www.w3.org/2000/svg" width="1280" height="1280">
<path d="M0 0 C422.4 0 844.8 0 1280 0 C1280 422.4 1280 844.8 1280 1280 C857.6 1280 435.2 1280 0 1280 C0 857.6 0 435.2 0 0 Z " fill="#FEFEFE" transform="translate(0,0)"/>
<path d="M0 0 C10.57851957 -0.41916981 21.15503218 -0.73789935 31.74019814 -0.93261909 C36.65727846 -1.02614177 41.56863669 -1.15265117 46.48242188 -1.35791016 C80.93619295 -2.76028367 80.93619295 -2.76028367 88.59228516 3.85400391 C91.78995902 7.49833306 94.0103074 11.37205359 95.95669556 15.79605103 C97.55202616 19.16613851 99.75158276 21.75821853 102.125 24.625 C106.31087031 30.07349349 110.43308232 35.56813387 114.54833984 41.07006836 C118.38699598 46.19705739 122.27875394 51.28076511 126.19140625 56.3515625 C135.09064399 67.89669636 143.90064052 79.50977145 152.625 91.1875 C157.9830962 98.35760436 163.43314688 105.44813858 168.94628906 112.49951172 C173.13834933 117.8691835 177.24908628 123.29372249 181.32324219 128.75317383 C190.79547194 141.43730529 200.45281029 153.98318998 210.07275391 166.55541992 C217.75202819 176.59347956 225.40429247 186.65215478 233.06152344 196.70703125 C235.10338207 199.38812259 237.14540462 202.06908898 239.1875 204.75 C239.85209229 205.62261475 240.51668457 206.49522949 241.20141602 207.39428711 C244.8376772 212.16724381 248.48043724 216.93511674 252.12988281 221.69799805 C256.76822478 227.75174726 261.37601544 233.82560839 265.9375 239.9375 C270.87488136 246.55107673 275.92499515 253.07157355 281.00415039 259.57666016 C284.89031073 264.5586414 288.71278915 269.58188064 292.48828125 274.6484375 C295.81508203 279.10181084 299.19185194 283.5172872 302.5625 287.9375 C303.24940918 288.83831299 303.93631836 289.73912598 304.64404297 290.66723633 C306.05831834 292.5215703 307.47270758 294.37581742 308.88720703 296.22998047 C310.93472801 298.91442384 312.98127919 301.59960269 315.02734375 304.28515625 C315.68460449 305.14778076 316.34186523 306.01040527 317.01904297 306.89916992 C318.33494448 308.626838 319.65037767 310.35486288 320.96533203 312.08325195 C324.47353948 316.69281289 327.9927942 321.2934102 331.52734375 325.8828125 C332.26533203 326.84380859 333.00332031 327.80480469 333.76367188 328.79492188 C335.18484204 330.64512454 336.60919281 332.49288959 338.03710938 334.33789062 C338.67326172 335.16740234 339.30941406 335.99691406 339.96484375 336.8515625 C340.5280835 337.58197754 341.09132324 338.31239258 341.67163086 339.06494141 C343 341 343 341 344 344 C332.17811448 344.30191134 320.35715311 344.53254195 308.53219032 344.67355824 C303.04041524 344.74126077 297.55128679 344.83298898 292.06103516 344.98071289 C286.75693393 345.12252627 281.45536836 345.19980396 276.14951706 345.23340416 C274.13104708 345.25732888 272.11270804 345.30405603 270.09532547 345.37449074 C254.71462703 345.8898723 254.71462703 345.8898723 250.18899727 342.73921394 C246.65072747 339.28960351 244.36434293 335.30238197 242 331 C240.83263877 329.38276961 239.64439215 327.7799432 238.41796875 326.20703125 C237.33950177 324.74339749 236.26268647 323.27854532 235.1875 321.8125 C234.59839844 321.01134766 234.00929688 320.21019531 233.40234375 319.38476562 C228.8649301 313.20399383 224.37371168 306.99053856 219.89306641 300.76855469 C214.25220615 292.94397065 208.52478663 285.18397997 202.79248047 277.42626953 C199.73389058 273.28621691 196.67910451 269.14336214 193.625 265 C193.03211182 264.19570557 192.43922363 263.39141113 191.82836914 262.56274414 C188.25569987 257.71314742 184.70320442 252.84962315 181.16796875 247.97265625 C178.23307435 243.94841366 175.27122428 239.94423893 172.3125 235.9375 C167.67187621 229.65084298 163.06512019 223.34168718 158.5 217 C152.31913616 208.41630186 146.05214172 199.89798533 139.76611328 191.39111328 C136.84043899 187.4300884 133.92048275 183.46485326 131 179.5 C127.4654797 174.70265599 123.93055889 169.90560811 120.39453125 165.109375 C114.65001775 157.31681756 108.9104291 149.52079442 103.18945312 141.7109375 C99.40723023 136.54983686 95.61025519 131.39967758 91.8125 126.25 C85.85045166 118.16245558 79.91551435 110.05694109 74.05078125 101.8984375 C68.76387508 94.5499004 63.45348031 87.2260875 58 80 C53.24565828 73.69998877 48.60230119 67.32702264 43.99389648 60.91967773 C38.31871801 53.03603592 32.55204051 45.22103148 26.77929688 37.40869141 C22.63236704 31.79485911 18.49345522 26.17511367 14.35546875 20.5546875 C12.1329863 17.53602468 9.90600073 14.52076279 7.67578125 11.5078125 C6.65880229 10.13024663 5.64187254 8.75264443 4.625 7.375 C4.15425049 6.74110352 3.68350098 6.10720703 3.19848633 5.45410156 C0 1.11325526 0 1.11325526 0 0 Z " fill="#1A8DC3" transform="translate(443,397)"/>
<path d="M0 0 C10.56 0 21.12 0 32 0 C32 19.14 32 38.28 32 58 C54.11 58 76.22 58 99 58 C99 38.86 99 19.72 99 0 C109.56 0 120.12 0 131 0 C131 48.84 131 97.68 131 148 C120.44 148 109.88 148 99 148 C99 132.16 99 116.32 99 100 C76.89 100 54.78 100 32 100 C32 115.84 32 131.68 32 148 C21.44 148 10.88 148 0 148 C0 99.16 0 50.32 0 0 Z " fill="#010101" transform="translate(191,495)"/>
<path d="M0 0 C37.62 0 75.24 0 114 0 C114 12.87 114 25.74 114 39 C86.61 39 59.22 39 31 39 C31 64.08 31 89.16 31 115 C58.06 115 85.12 115 113 115 C113 127.87 113 140.74 113 154 C75.71 154 38.42 154 0 154 C0 103.18 0 52.36 0 0 Z " fill="#000000" transform="translate(352,491)"/>
<path d="M0 0 C0.66 0 1.32 0 2 0 C3.19824219 1.35083008 3.19824219 1.35083008 4.546875 3.26953125 C5.30859009 4.34062134 5.30859009 4.34062134 6.08569336 5.43334961 C6.90952515 6.61102905 6.90952515 6.61102905 7.75 7.8125 C8.93269023 9.47720478 10.11631402 11.14124663 11.30078125 12.8046875 C11.91260254 13.66674805 12.52442383 14.52880859 13.15478516 15.41699219 C16.03969579 19.45540903 18.98628809 23.44740482 21.9375 27.4375 C23.10029042 29.01169659 24.26305058 30.58591553 25.42578125 32.16015625 C26.0079541 32.94793457 26.59012695 33.73571289 27.18994141 34.54736328 C29.081953 37.11104664 30.969262 39.67813697 32.85546875 42.24609375 C33.48654541 43.10468994 34.11762207 43.96328613 34.76782227 44.84790039 C35.97348234 46.48846664 37.17843918 48.12955002 38.38256836 49.77124023 C38.92921143 50.51446533 39.47585449 51.25769043 40.0390625 52.0234375 C40.54727539 52.71920898 41.05548828 53.41498047 41.57910156 54.13183594 C43.10848078 56.19684161 43.10848078 56.19684161 45.4609375 58.7265625 C47 61 47 61 46.76293945 63.39355469 C45.96762919 66.11058906 45.03409098 67.73259637 43.33203125 69.9765625 C42.77580078 70.71970703 42.21957031 71.46285156 41.64648438 72.22851562 C41.04126953 73.01935547 40.43605469 73.81019531 39.8125 74.625 C38.52711431 76.33576513 37.24196453 78.04670754 35.95703125 79.7578125 C35.29783691 80.62954102 34.63864258 81.50126953 33.95947266 82.39941406 C30.93906553 86.40805805 27.97072666 90.45448626 25 94.5 C23.83361695 96.08354227 22.66694935 97.666875 21.5 99.25 C20.63375 100.425625 20.63375 100.425625 19.75 101.625 C18 104 16.25 106.375 14.5 108.75 C13.9217749 109.53479736 13.3435498 110.31959473 12.74780273 111.12817383 C11.58870487 112.701108 10.42936499 114.27386385 9.26977539 115.84643555 C6.2352304 119.96239755 3.20576764 124.08197509 0.18359375 128.20703125 C-0.44353516 129.06167969 -1.07066406 129.91632813 -1.71679688 130.796875 C-2.91107443 132.42463108 -4.10388206 134.0534671 -5.29492188 135.68359375 C-5.83826172 136.42351562 -6.38160156 137.1634375 -6.94140625 137.92578125 C-7.41263916 138.56942627 -7.88387207 139.21307129 -8.36938477 139.8762207 C-8.90748779 140.57706787 -9.44559082 141.27791504 -10 142 C-10.67273956 143.01975418 -11.34547913 144.03950836 -12.03860474 145.09016418 C-13.62022457 146.96503274 -14.54856583 147.87213084 -16.92462444 148.54515171 C-19.30684802 148.73883676 -21.62348538 148.74234787 -24.01293945 148.68115234 C-24.91099808 148.6820285 -25.8090567 148.68290466 -26.73432922 148.68380737 C-29.69487296 148.67963599 -32.65313472 148.63300558 -35.61328125 148.5859375 C-37.66878522 148.57474376 -39.72430522 148.56620441 -41.77983093 148.56021118 C-47.18401461 148.53732706 -52.58722723 148.47840663 -57.99102783 148.4119873 C-63.5075568 148.35055625 -69.02424303 148.32319436 -74.54101562 148.29296875 C-85.3611032 148.22866363 -96.18047078 148.12628854 -107 148 C-106.21741809 144.44905311 -105.00663057 142.39093751 -102.75390625 139.5078125 C-102.08665527 138.64526855 -101.4194043 137.78272461 -100.73193359 136.89404297 C-99.65806396 135.5233667 -99.65806396 135.5233667 -98.5625 134.125 C-97.08565537 132.21476541 -95.61039245 130.30330691 -94.13671875 128.390625 C-93.06236572 126.9974707 -93.06236572 126.9974707 -91.96630859 125.57617188 C-89.53365365 122.38901333 -87.18268556 119.15330009 -84.875 115.875 C-75.71081659 102.89047347 -66.15742971 90.18716927 -56.60888672 77.48413086 C-50.5980489 69.48083178 -44.66012879 61.42492846 -38.73388672 53.35888672 C-36.40892361 50.19586313 -34.08013506 47.03566737 -31.75097656 43.87573242 C-30.58721035 42.2967295 -29.42379666 40.71746669 -28.26074219 39.13793945 C-25.28769988 35.10065472 -22.30997796 31.0669536 -19.32421875 27.0390625 C-18.11172684 25.40122843 -16.89948379 23.76321011 -15.6875 22.125 C-15.10581055 21.33955811 -14.52412109 20.55411621 -13.92480469 19.74487305 C-9.68180245 13.99040728 -5.62040096 8.13568039 -1.671875 2.17578125 C-1.12015625 1.45777344 -0.5684375 0.73976563 0 0 Z " fill="#0B092D" transform="translate(538,596)"/>
<path d="M0 0 C2.09458187 0.02427226 4.18923797 0.04276519 6.28392029 0.05574036 C11.77518507 0.10518253 17.2619193 0.23268707 22.75140381 0.37689209 C28.36164048 0.51031673 33.97261563 0.56934362 39.58398438 0.63476562 C50.57750255 0.77383931 61.56767027 0.99545495 72.55859375 1.26953125 C67.13472603 12.47138697 58.20451185 22.39913176 50.66455078 32.23486328 C45.733398 38.68347206 40.93755707 45.21533603 36.20947266 51.8137207 C32.25851975 57.32168432 28.22171773 62.75797675 24.14086914 68.17016602 C20.30605984 73.26009482 16.5190298 78.38360561 12.74609375 83.51953125 C7.27478368 90.96417511 1.75323883 98.36926006 -3.80883789 105.74633789 C-7.04318606 110.04315273 -10.2436609 114.36025338 -13.39453125 118.71875 C-14.03197266 119.59724609 -14.66941406 120.47574219 -15.32617188 121.38085938 C-16.54469638 123.06382672 -17.75721671 124.75116214 -18.96289062 126.44335938 C-19.50751953 127.19423828 -20.05214844 127.94511719 -20.61328125 128.71875 C-21.08862305 129.38221436 -21.56396484 130.04567871 -22.05371094 130.72924805 C-23.44140625 132.26953125 -23.44140625 132.26953125 -26.44140625 133.26953125 C-27.00085938 132.47933594 -27.5603125 131.68914062 -28.13671875 130.875 C-39.18728222 115.31155478 -50.59775151 100.01464168 -62.06640625 84.7578125 C-62.62585938 84.00580566 -63.1853125 83.25379883 -63.76171875 82.47900391 C-64.89262241 80.99140534 -66.05517092 79.52740075 -67.24609375 78.08740234 C-67.80554688 77.39855957 -68.365 76.7097168 -68.94140625 76 C-69.44671875 75.39953857 -69.95203125 74.79907715 -70.47265625 74.18041992 C-71.44140625 72.26953125 -71.44140625 72.26953125 -71.27319336 69.78222656 C-70.39247068 67.12170476 -69.39067737 65.50529323 -67.6328125 63.3359375 C-67.05611816 62.61237061 -66.47942383 61.88880371 -65.88525391 61.14331055 C-65.26440918 60.38058838 -64.64356445 59.61786621 -64.00390625 58.83203125 C-62.70876099 57.20615848 -61.41580487 55.57853956 -60.125 53.94921875 C-59.49062012 53.14967773 -58.85624023 52.35013672 -58.20263672 51.52636719 C-55.48146889 48.03947012 -52.95239422 44.43525146 -50.41455078 40.81298828 C-45.92859388 34.46104689 -41.17190585 28.3153204 -36.41259766 22.16674805 C-35.77112793 21.33312744 -35.1296582 20.49950684 -34.46875 19.640625 C-33.83451111 18.84164291 -33.20027222 18.04266083 -32.54681396 17.21946716 C-30.3470107 14.31236333 -30.3470107 14.31236333 -28.8331604 10.94589233 C-22.20822024 -1.66462235 -13.09446482 -0.44602449 0 0 Z " fill="#0B092C" transform="translate(710.44140625,389.73046875)"/>
<path d="M0 0 C38.94 0 77.88 0 118 0 C123.61 13.53 129.22 27.06 135 41 C138.46561957 49.35699606 138.46561957 49.35699606 141.93212891 57.71362305 C143.25862837 60.91193172 144.58196898 64.11153031 145.90380859 67.31176758 C148.85500136 74.4519436 151.81028463 81.58873838 154.8591156 88.68789673 C156.02031988 91.39277385 157.17163049 94.10180926 158.32235718 96.81115723 C159.09972835 98.62842233 159.89299232 100.43886344 160.68676758 102.24902344 C161.37162231 103.86405762 161.37162231 103.86405762 162.0703125 105.51171875 C162.47008301 106.43428467 162.86985352 107.35685059 163.28173828 108.30737305 C164.91552698 114.432137 162.08149462 119.43683958 159.40234375 124.8046875 C159.04862198 125.5286673 158.69490021 126.25264709 158.33045959 126.99856567 C157.20672348 129.29435329 156.07231482 131.58467172 154.9375 133.875 C154.17051138 135.43715034 153.4042277 136.999647 152.63867188 138.5625 C150.76724976 142.37905665 148.8862424 146.19074759 147 150 C146.34 150 145.68 150 145 150 C144.69521729 149.24533447 144.39043457 148.49066895 144.07641602 147.71313477 C135.25905659 125.90005859 126.28479916 104.15426077 117.25537109 82.42822266 C113.7317884 73.94915005 110.21434319 65.46753122 106.69714355 56.98580933 C105.58393044 54.30167226 104.47022429 51.61774019 103.35644531 48.93383789 C102.6764158 47.29444044 101.99640193 45.65503649 101.31640625 44.015625 C101.00886917 43.274832 100.70133209 42.534039 100.38447571 41.77079773 C98.89939827 38.18919268 97.44006577 34.60016442 96 31 C64.32 30.67 32.64 30.34 0 30 C0 20.1 0 10.2 0 0 Z " fill="#010101" transform="translate(496,804)"/>
<path d="M0 0 C0.66 0 1.32 0 2 0 C7.36064573 10.24111842 12.71005542 20.48791182 18.0078125 30.76171875 C18.34907166 31.42349625 18.69033081 32.08527374 19.04193115 32.7671051 C20.70906504 36.00098837 22.3748516 39.23555889 24.0390625 42.47094727 C27.60703321 49.40111034 31.21218229 56.31017644 34.8515625 63.203125 C39.61833966 72.23706453 44.28730844 81.31912327 48.93115234 90.41674805 C51.20629951 94.87312202 53.48595276 99.32718956 55.765625 103.78125 C56.2145813 104.65849731 56.6635376 105.53574463 57.12609863 106.4395752 C61.06631163 114.13560254 65.02395788 121.82242607 69 129.5 C69.54430664 130.55316406 70.08861328 131.60632813 70.64941406 132.69140625 C73.37076719 137.93713837 76.15690695 143.12490682 79.1171875 148.24023438 C80 150 80 150 80 152 C68.12 152 56.24 152 44 152 C33 130 33 130 33 128 C18.48 128 3.96 128 -11 128 C-10.21187291 124.05936454 -9.656148 121.9652717 -7.85546875 118.6015625 C-7.42556641 117.79203125 -6.99566406 116.9825 -6.55273438 116.1484375 C-6.10220703 115.31570313 -5.65167969 114.48296875 -5.1875 113.625 C-4.74857422 112.8 -4.30964844 111.975 -3.85742188 111.125 C-1.31735708 106.36945522 1.30150741 101.66732285 4 97 C7.96 97 11.92 97 16 97 C11.13617247 87.17920782 6.24387213 77.37831622 1.125 67.6875 C0.72643799 66.92888672 0.32787598 66.17027344 -0.08276367 65.38867188 C-2.46085746 60.87286586 -4.88137826 56.38312166 -7.33203125 51.90625 C-8.45063334 49.83339404 -9.56912455 47.76047824 -10.6875 45.6875 C-11.50033447 44.22799927 -11.50033447 44.22799927 -12.32958984 42.73901367 C-15.95982378 35.96301185 -15.95982378 35.96301185 -16.12890625 31.91015625 C-14.48454397 27.67122927 -12.43853532 23.7311211 -10.25 19.75 C-9.34041943 18.06158904 -8.43155842 16.37279023 -7.5234375 14.68359375 C-7.08741211 13.87776855 -6.65138672 13.07194336 -6.20214844 12.24169922 C-4.03947698 8.20887035 -2.00815815 4.11143959 0 0 Z " fill="#020202" transform="translate(842,798)"/>
<path d="M0 0 C10.56 0 21.12 0 32 0 C34.475 6.435 34.475 6.435 37 13 C43.67178245 24.45806116 52.33441092 30.77813697 65 35 C80.05472315 36.3382729 93.19033454 35.45790811 105.265625 25.578125 C113.08783322 18.46062022 117.10521204 9.73696991 121 0 C131.56 0 142.12 0 153 0 C150.67466959 13.95198247 150.67466959 13.95198247 147.8125 20.0625 C147.50425293 20.73877441 147.19600586 21.41504883 146.87841797 22.11181641 C138.01328318 41.09050609 124.40502724 54.83583748 105 63 C88.57391768 68.78331132 69.72496216 71.14888315 53 65 C51.9996875 64.63648438 50.999375 64.27296875 49.96875 63.8984375 C28.98181855 55.68385575 14.14715087 40.83270401 4.44140625 20.54296875 C1.74218545 13.90829866 0 7.17556291 0 0 Z " fill="#020202" transform="translate(218,886)"/>
<path d="M0 0 C12.96978825 11.23309296 24.85546329 25.85557033 27.7421875 43.375 C27.7421875 46.015 27.7421875 48.655 27.7421875 51.375 C17.5121875 51.375 7.2821875 51.375 -3.2578125 51.375 C-5.2378125 46.755 -7.2178125 42.135 -9.2578125 37.375 C-16.76910325 26.48362841 -25.9993015 18.86554903 -39.2578125 16.375 C-52.50060583 14.93204498 -63.34542091 16.42531562 -74.5078125 24.125 C-83.86815094 31.79230425 -88.46457235 39.99527955 -92.2578125 51.375 C-102.8178125 51.375 -113.3778125 51.375 -124.2578125 51.375 C-123.58142489 44.61112388 -123.07211104 39.58221817 -120.6953125 33.5 C-120.43137695 32.81655518 -120.16744141 32.13311035 -119.89550781 31.42895508 C-111.83530184 11.4950873 -95.86788764 -2.9216641 -76.3984375 -11.41015625 C-50.60793752 -21.38633224 -21.58981553 -17.31865961 0 0 Z " fill="#020202" transform="translate(342.2578125,816.625)"/>
<path d="M0 0 C3.05075084 -0.266487 5.89626179 -0.34757146 8.9453125 -0.29296875 C9.8303244 -0.28872391 10.7153363 -0.28447906 11.62716675 -0.28010559 C14.46008445 -0.26328259 17.29229652 -0.22562425 20.125 -0.1875 C22.04295849 -0.17245782 23.96092811 -0.15876861 25.87890625 -0.14648438 C30.58621031 -0.11336727 35.29298544 -0.06156055 40 0 C37.42825801 4.57090239 34.83539221 8.68964928 31.5625 12.8125 C27.48244319 18.01962734 23.54963651 23.31686113 19.6875 28.6875 C19.13964844 29.4491748 18.59179688 30.21084961 18.02734375 30.99560547 C16.90729805 32.55459681 15.78783471 34.1140067 14.66894531 35.67382812 C11.97232364 39.43237278 9.26875178 43.18588487 6.5625 46.9375 C6.03487061 47.66904297 5.50724121 48.40058594 4.96362305 49.15429688 C0.2703958 55.64922988 -4.47808708 62.102862 -9.24389648 68.54467773 C-9.79247314 69.28661377 -10.3410498 70.0285498 -10.90625 70.79296875 C-11.38384766 71.4377417 -11.86144531 72.08251465 -12.35351562 72.74682617 C-12.89685547 73.49037354 -13.44019531 74.2339209 -14 75 C-15.31133911 76.39484619 -15.31133911 76.39484619 -16.64916992 77.81787109 C-20.61022272 83.42175964 -19.72779649 90.54548588 -19.70703125 97.12109375 C-19.72016053 98.59084612 -19.73546853 100.0605805 -19.75285339 101.5302887 C-19.79257365 105.37887155 -19.80288532 109.22698101 -19.80688477 113.07574463 C-19.81788893 117.70407371 -19.86575218 122.33215342 -19.90737152 126.960289 C-19.96634726 133.97373731 -19.97876264 140.98587898 -20 148 C-30.56 148 -41.12 148 -52 148 C-52.22712854 138.33271039 -52.4100592 128.66722998 -52.51812172 118.99786186 C-52.57002216 114.50650755 -52.64025163 110.01709332 -52.75439453 105.52685547 C-52.86412315 101.18241857 -52.92305951 96.83983092 -52.94877243 92.49411392 C-52.96706232 90.84748375 -53.0027758 89.20093974 -53.05730057 87.55511093 C-53.46804992 74.62668444 -50.38471335 67.74003797 -42 58 C-40.79092303 56.38093454 -39.59305232 54.75327849 -38.41796875 53.109375 C-37.34195956 51.65564735 -36.26513581 50.20252226 -35.1875 48.75 C-28.94878484 40.3106919 -22.78831872 31.81749648 -16.65722656 23.29980469 C-14.89671399 20.85666555 -13.1324062 18.4163033 -11.3671875 15.9765625 C-10.77236572 15.15422119 -10.17754395 14.33187988 -9.56469727 13.48461914 C-8.42229306 11.90543673 -7.27956763 10.32648662 -6.13647461 8.74780273 C-5.6235083 8.03825439 -5.11054199 7.32870605 -4.58203125 6.59765625 C-4.13061768 5.97383057 -3.6792041 5.35000488 -3.21411133 4.70727539 C-2.11300446 3.15890613 -1.05391339 1.58087009 0 0 Z " fill="#010101" transform="translate(1022,495)"/>
<path d="M0 0 C4.39789453 4.77130067 6.78321235 10.43593219 9.5 16.25 C10.57274301 18.51570723 11.64566462 20.78132991 12.71875 23.046875 C13.26402344 24.20380859 13.80929687 25.36074219 14.37109375 26.55273438 C16.8886753 31.88070972 19.44502227 37.18988499 22 42.5 C23.00544149 44.59363805 24.01064943 46.68738827 25.015625 48.78125 C25.51126953 49.81378906 26.00691406 50.84632813 26.51757812 51.91015625 C27.96600071 54.92913456 29.41291026 57.94883322 30.859375 60.96875 C31.33479736 61.96003906 31.81021973 62.95132813 32.30004883 63.97265625 C33.26607638 65.98961898 34.22946027 68.00785004 35.19018555 70.02734375 C37.80436506 75.50442804 40.46826865 80.95079589 43.21615601 86.36181641 C44.72327756 89.33467942 46.21381551 92.31572784 47.70349121 95.29736328 C48.43568392 96.75159391 49.17570315 98.20191352 49.9239502 99.64794922 C57.19976501 113.7198188 57.19976501 113.7198188 55.85473633 119.59521484 C53.75023068 125.51620332 51.42600722 131.29506843 48.9375 137.0625 C48.36284775 138.41816058 47.78927083 139.7742775 47.21679688 141.13085938 C45.82355903 144.42592768 44.41586103 147.71457837 43 151 C40.65673828 150.75634766 40.65673828 150.75634766 38 150 C36.59716797 148.23193359 36.59716797 148.23193359 35.4921875 145.8984375 C35.06905273 145.02840088 34.64591797 144.15836426 34.20996094 143.26196289 C33.76942383 142.30926514 33.32888672 141.35656738 32.875 140.375 C32.39836914 139.38298584 31.92173828 138.39097168 31.43066406 137.36889648 C29.93756488 134.2533649 28.46862965 131.1271258 27 128 C26.124572 126.16953057 25.24704676 124.34006232 24.3671875 122.51171875 C22.58865622 118.81221395 20.81841556 115.10892851 19.0546875 111.40234375 C15.69089655 104.34201684 12.30112091 97.29432477 8.90100098 90.25143433 C8.21879787 88.83753694 7.5373969 87.42325224 6.85681152 86.00857544 C5.9039392 84.02818113 4.94841261 82.04908964 3.9921875 80.0703125 C3.43901855 78.92320801 2.88584961 77.77610352 2.31591797 76.59423828 C1.23619134 74.13261172 1.23619134 74.13261172 0 73 C-3.63 80.59 -7.26 88.18 -11 96 C-14.29113475 94.35443262 -14.96881867 90.76201703 -16.29296875 87.4921875 C-16.75839836 86.35392014 -16.75839836 86.35392014 -17.23323059 85.19265747 C-17.88832673 83.58178294 -18.53956115 81.96933345 -19.18725586 80.35546875 C-20.17780179 77.89905024 -21.19267736 75.45366382 -22.20898438 73.0078125 C-22.84267674 71.44072236 -23.47488586 69.87303145 -24.10546875 68.3046875 C-24.41058884 67.57837128 -24.71570892 66.85205505 -25.03007507 66.10372925 C-27.40846468 60.05188046 -27.13496143 55.81836618 -24.66821289 49.69287109 C-24.1086792 48.56445801 -23.54914551 47.43604492 -22.97265625 46.2734375 C-22.66783829 45.65132385 -22.36302032 45.02921021 -22.04896545 44.38824463 C-21.06236726 42.37930477 -20.06258172 40.37725629 -19.0625 38.375 C-18.37966089 36.99058198 -17.69786407 35.60564941 -17.01708984 34.22021484 C-15.99222216 32.13510453 -14.96659037 30.05040885 -13.93713379 27.96755981 C-10.50035638 21.01263601 -7.18218907 14.00304774 -3.88305664 6.98193359 C-3.32606079 5.8036499 -3.32606079 5.8036499 -2.7578125 4.6015625 C-2.4395752 3.92432129 -2.12133789 3.24708008 -1.79345703 2.54931641 C-1 1 -1 1 0 0 Z " fill="#020202" transform="translate(682,800)"/>
<path d="M0 0 C10.56 0 21.12 0 32 0 C33 1 33 1 33.12304783 3.43441868 C33.12212604 4.52489978 33.12120424 5.61538088 33.12025452 6.73890686 C33.12162918 7.98557632 33.12300385 9.23224579 33.12442017 10.51669312 C33.12088056 11.91094994 33.11724574 13.30520653 33.11352539 14.69946289 C33.11324353 16.15771991 33.11340124 17.61597707 33.1139679 19.07423401 C33.1142559 23.04513485 33.10835877 27.01600575 33.10139394 30.98689961 C33.09516081 35.13225101 33.09455663 39.27760302 33.09336853 43.42295837 C33.09025509 51.27819327 33.08204154 59.13341432 33.07201904 66.98864311 C33.06085829 75.92924399 33.05534755 84.86984552 33.05032361 93.81045163 C33.03985893 112.20697721 33.0215133 130.60348379 33 149 C22.11 149 11.22 149 0 149 C0 99.83 0 50.66 0 0 Z " fill="#1E8FC3" transform="translate(1061,803)"/>
<path d="M0 0 C10.56 0 21.12 0 32 0 C32 48.84 32 97.68 32 148 C21.44 148 10.88 148 0 148 C0 99.16 0 50.32 0 0 Z " fill="#020202" transform="translate(764,495)"/>
<path d="M0 0 C10.56 0 21.12 0 32 0 C32 48.18 32 96.36 32 146 C21.44 146 10.88 146 0 146 C0 97.82 0 49.64 0 0 Z " fill="#030303" transform="translate(928,804)"/>
<path d="M0 0 C10.23 0 20.46 0 31 0 C31 48.84 31 97.68 31 148 C20.77 148 10.54 148 0 148 C0 99.16 0 50.32 0 0 Z " fill="#020202" transform="translate(824,495)"/>
<path d="M0 0 C10.23 0 20.46 0 31 0 C31 48.18 31 96.36 31 146 C20.77 146 10.54 146 0 146 C0 97.82 0 49.64 0 0 Z " fill="#000000" transform="translate(392,804)"/>
<path d="M0 0 C11.96955985 5.06796257 21.80421193 13.28427783 27.02734375 25.37890625 C31.18863241 37.93947802 30.37371484 52.99594777 25 65 C23.22932936 68.21146292 21.2420964 71.10297544 19 74 C18.278125 75.03125 17.55625 76.0625 16.8125 77.125 C9.99448876 85.01723167 -1.75818987 90.66844024 -12 92 C-27.29324372 92.99454996 -39.65894731 90.14305566 -51.9296875 80.48046875 C-62.59643379 70.7381738 -66.6077584 57.92241597 -68 44 C-57.44 44 -46.88 44 -36 44 C-35.01 47.3 -34.02 50.6 -33 54 C-28.51462614 58.57881915 -25.0580968 60.14593503 -18.75 60.375 C-13.94177949 60.32411936 -11.02624734 59.61941917 -7.37109375 56.47265625 C-3.80343829 52.64073001 -2.80799704 49.11707898 -2.5625 44 C-2.7335059 39.24746101 -3.73811542 36.59643685 -7 33 C-9.26470388 31.17174869 -11.55700668 29.59734178 -14 28 C-12.32337853 23.55781735 -10.25504121 19.36132731 -8.125 15.125 C-7.78597656 14.44308594 -7.44695312 13.76117187 -7.09765625 13.05859375 C-4.87233989 8.61642232 -2.49996986 4.29367021 0 0 Z " fill="#020202" transform="translate(173,862)"/>
<path d="M0 0 C9.39185264 8.32559254 14.51651155 18.57855195 16 31 C16 32.32 16 33.64 16 35 C5.11 35 -5.78 35 -17 35 C-18.32 32.03 -19.64 29.06 -21 26 C-23.44961605 23.21250587 -24.67283517 23.04846886 -28.375 22.5 C-33.15613064 23.15946629 -34.62434107 24.62434107 -38 28 C-39.61029811 31.22059622 -39.44995285 34.50782861 -39 38 C-37.36669017 41.34086102 -35.96953265 42.62312837 -32.5078125 43.96875 C-30.01833742 44.73040243 -27.53403541 45.40517871 -25 46 C-25.61646837 50.00225317 -26.89229674 53.13536305 -28.72265625 56.73828125 C-29.26083984 57.80498047 -29.79902344 58.87167969 -30.35351562 59.97070312 C-30.91748047 61.07349609 -31.48144531 62.17628906 -32.0625 63.3125 C-32.63033203 64.43462891 -33.19816406 65.55675781 -33.78320312 66.71289062 C-35.18342977 69.47804408 -36.58918665 72.24023716 -38 75 C-47.70615933 73.95619795 -55.55225612 69.45847031 -62.2109375 62.34765625 C-70.94670879 50.88434065 -72.09593811 38.88596447 -71 25 C-68.88049658 13.45764404 -62.59340544 5.31816073 -53.25 -1.5 C-36.86959522 -12.42026985 -16.0221105 -11.38602755 0 0 Z " fill="#030303" transform="translate(180,809)"/>
<path d="M0 0 C19.02094978 -0.41957977 35.02052139 -0.35870181 49.75 13.125 C58.34348253 22.15956393 62.59046124 33.86956314 62.3203125 46.2578125 C60.92978335 58.16209865 55.86475097 69.85093534 47 78 C37.91056118 84.63776809 30.0807427 88.15386506 18.7265625 88.09765625 C17.16542725 88.09390991 17.16542725 88.09390991 15.57275391 88.09008789 C14.26999512 88.08098389 12.96723633 88.07187988 11.625 88.0625 C7.45875 88.041875 3.2925 88.02125 -1 88 C-1 77.77 -1 67.54 -1 57 C9.125 56.6875 9.125 56.6875 12.28173828 56.61206055 C18.50653717 56.36601397 23.28584352 55.7716598 27.84375 51.1171875 C29.9651326 47.23276396 29.72850634 43.28334745 29 39 C27.44253262 35.91596737 25.51397838 33.51103673 22.12597656 32.36743164 C19.8143522 31.96791457 17.57810554 31.78876115 15.234375 31.68359375 C14.43225586 31.64548584 13.63013672 31.60737793 12.80371094 31.56811523 C11.79598633 31.52501221 10.78826172 31.48190918 9.75 31.4375 C4.92375 31.2209375 4.92375 31.2209375 0 31 C0 20.77 0 10.54 0 0 Z " fill="#030303" transform="translate(978,804)"/>
<path d="M0 0 C10.89 0 21.78 0 33 0 C33 32.67 33 65.34 33 99 C22.11 99 11.22 99 0 99 C0 66.33 0 33.66 0 0 Z " fill="#2090C4" transform="translate(529,852)"/>
<path d="M0 0 C10.72742015 -0.43099528 21.44901089 -0.77872492 32.18316174 -0.98443127 C37.16894098 -1.08321671 42.14844822 -1.21686754 47.13061523 -1.43334961 C79.29424327 -2.79505453 79.29424327 -2.79505453 87.02593994 1.79730225 C91.48277172 6.05532922 93.90625155 10.8534353 95.97207642 16.59725952 C97.09890839 19.23119538 98.51008377 21.10087914 100.32495117 23.30786133 C102.99401502 26.67301554 102.99401502 26.67301554 103.05004883 29.734375 C101.94382337 32.12120881 100.76268526 34.13237174 99.19921875 36.25 C98.63396484 37.0234375 98.06871094 37.796875 97.48632812 38.59375 C96.89271484 39.3878125 96.29910156 40.181875 95.6875 41 C95.10548828 41.7940625 94.52347656 42.588125 93.92382812 43.40625 C91.03028884 47.33857971 88.08849565 51.21754607 85 55 C81.72774588 53.90924863 81.35826322 53.48511129 79.50390625 50.78125 C79.03339844 50.10425049 78.56289063 49.42725098 78.078125 48.72973633 C77.32789063 47.62601685 77.32789063 47.62601685 76.5625 46.5 C75.49113691 44.95164887 74.41951459 43.40347708 73.34765625 41.85546875 C72.7973877 41.05544434 72.24711914 40.25541992 71.68017578 39.43115234 C68.98713733 35.53442509 66.24121322 31.67540997 63.5 27.8125 C62.53025307 26.44471669 61.56145283 25.07626152 60.59375 23.70703125 C59.98563477 22.84815308 59.98563477 22.84815308 59.36523438 21.97192383 C57.54196023 19.3384143 55.77674733 16.665121 54 14 C53.67 19.61 53.34 25.22 53 31 C35.51 31 18.02 31 0 31 C0 20.77 0 10.54 0 0 Z " fill="#010101" transform="translate(875,495)"/>
<path d="M0 0 C0.66 0 1.32 0 2 0 C2.47308594 0.95777344 2.94617188 1.91554688 3.43359375 2.90234375 C4.10131734 4.24751755 4.76930776 5.59255893 5.4375 6.9375 C5.7893335 7.6488208 6.14116699 8.3601416 6.50366211 9.09301758 C8.44935636 12.99848367 10.45158139 16.85719813 12.5703125 20.671875 C12.98611572 21.42734619 13.40191895 22.18281738 13.83032227 22.96118164 C14.63923582 24.42273954 15.45972029 25.87796488 16.29272461 27.32592773 C17.79111281 30.04738308 18.99292481 32.27007623 19.0234375 35.41796875 C17.42896882 39.44065501 15.53600165 43.27602442 13.5625 47.125 C13.11656494 48.00518799 12.67062988 48.88537598 12.21118164 49.79223633 C7.57289847 58.91329764 2.80207588 67.9643896 -2 77 C-3.23546875 79.32695248 -4.47056908 81.65409819 -5.70483398 83.98168945 C-6.45452326 85.39488424 -7.20524248 86.80753341 -7.95727539 88.21948242 C-10.38009577 92.7810605 -12.68838233 97.37676466 -15 102 C-26.88 102 -38.76 102 -51 102 C-51 101.01 -51 100.02 -51 99 C-50.34 99 -49.68 99 -49 99 C-48.885354 98.27723877 -48.77070801 97.55447754 -48.65258789 96.80981445 C-47.97267196 93.88233504 -46.97250444 91.68840764 -45.55859375 89.04296875 C-45.06166016 88.10396729 -44.56472656 87.16496582 -44.05273438 86.19750977 C-43.51970703 85.20420654 -42.98667969 84.21090332 -42.4375 83.1875 C-41.33102173 81.09688815 -40.22555456 79.00574086 -39.12109375 76.9140625 C-38.58210449 75.89602539 -38.04311523 74.87798828 -37.48779297 73.82910156 C-35.61220315 70.26258781 -33.79084449 66.67215585 -32 63.0625 C-31.69562012 62.45035645 -31.39124023 61.83821289 -31.07763672 61.20751953 C-30.42466013 59.89256667 -29.77234518 58.57728509 -29.12060547 57.26171875 C-16.60072757 31.99284101 -16.60072757 31.99284101 -10.10205078 19.84619141 C-6.60247512 13.29562058 -3.28321207 6.6614367 0 0 Z " fill="#1C8EC3" transform="translate(815,849)"/>
<path d="M0 0 C11.22 0 22.44 0 34 0 C32.129967 5.610099 30.29830051 10.90107245 28.0234375 16.3125 C27.59923271 17.32600525 27.59923271 17.32600525 27.16645813 18.35998535 C26.2389 20.57456432 25.30694286 22.7872631 24.375 25 C23.38019719 27.37176823 22.38656875 29.74402615 21.39305115 32.11633301 C20.69513243 33.78274108 19.99685347 35.4489983 19.29823303 37.1151123 C16.61514537 43.51754758 13.95358863 49.92871472 11.30078125 56.34375 C10.91434448 57.27791748 10.52790771 58.21208496 10.12976074 59.17456055 C8.60588458 62.85898439 7.0823256 66.54353675 5.56097412 70.22900391 C4.5041769 72.78862059 3.445605 75.34749697 2.38671875 77.90625 C2.07277664 78.66820679 1.75883453 79.43016357 1.43537903 80.21520996 C0.0603019 83.53455279 -1.32249169 86.82057887 -3 90 C-6.31604131 86.12602158 -8.19857963 81.5903167 -10.3125 77 C-13.47652344 70.1028714 -13.47652344 70.1028714 -16.95703125 63.36328125 C-17.50746094 62.35652344 -18.05789063 61.34976563 -18.625 60.3125 C-19.11226562 59.46300781 -19.59953125 58.61351562 -20.1015625 57.73828125 C-22.83505722 49.40706474 -17.77053774 41.15907642 -14.4375 33.6875 C-13.89243515 32.44547769 -13.34849831 31.20295977 -12.80566406 29.95996094 C-11.72109848 27.477958 -10.63228581 24.99788953 -9.54052734 22.51904297 C-7.39434278 17.61649077 -5.31537929 12.68701055 -3.25 7.75 C-2.1775 5.1925 -1.105 2.635 0 0 Z " fill="#020202" transform="translate(751,804)"/>
<path d="M0 0 C17.82 0 35.64 0 54 0 C54 11.22 54 22.44 54 34 C36.18 34 18.36 34 0 34 C0 22.78 0 11.56 0 0 Z " fill="#1D8EC3" transform="translate(874,553)"/>
<path d="M0 0 C19.47 0 38.94 0 59 0 C59 10.23 59 20.46 59 31 C39.53 31 20.06 31 0 31 C0 20.77 0 10.54 0 0 Z " fill="#1A8DC2" transform="translate(401,556)"/>
<path d="M0 0 C19.14 0 38.28 0 58 0 C58 10.23 58 20.46 58 31 C38.86 31 19.72 31 0 31 C0 20.77 0 10.54 0 0 Z " fill="#050505" transform="translate(1111,919)"/>
<path d="M0 0 C19.14 0 38.28 0 58 0 C58 10.23 58 20.46 58 31 C38.86 31 19.72 31 0 31 C0 20.77 0 10.54 0 0 Z " fill="#040404" transform="translate(1111,804)"/>
<path d="M0 0 C19.14 0 38.28 0 58 0 C58 9.9 58 19.8 58 30 C38.86 30 19.72 30 0 30 C0 20.1 0 10.2 0 0 Z " fill="#010101" transform="translate(1111,862)"/>
<path d="M0 0 C18.15 0 36.3 0 55 0 C55 9.9 55 19.8 55 30 C36.85 30 18.7 30 0 30 C0 20.1 0 10.2 0 0 Z " fill="#000000" transform="translate(440,862)"/>
<path d="M0 0 C18.15 0 36.3 0 55 0 C55 9.9 55 19.8 55 30 C36.85 30 18.7 30 0 30 C0 20.1 0 10.2 0 0 Z " fill="#000000" transform="translate(440,804)"/>
<path d="M0 0 C1.01147461 2.15795898 1.01147461 2.15795898 1.90234375 4.99609375 C2.23556641 6.03056641 2.56878906 7.06503906 2.91210938 8.13085938 C3.41967773 9.76764648 3.41967773 9.76764648 3.9375 11.4375 C6.11223507 18.30530498 8.34070165 25.07636896 11.07836914 31.74243164 C12.39394606 34.96498523 13.57559701 38.22327068 14.75 41.5 C15.17796875 42.6859375 15.6059375 43.871875 16.046875 45.09375 C17 48 17 48 17 50 C5.78 50 -5.44 50 -17 50 C-20.25 40.125 -20.25 40.125 -21.24707031 37.07861328 C-23.27686222 30.95226719 -25.56324214 24.97441284 -28 19 C-28.76246173 17.02560065 -29.51547646 15.04746243 -30.25 13.0625 C-30.58515625 12.16660156 -30.9203125 11.27070312 -31.265625 10.34765625 C-32 8 -32 8 -32 5 C-30.82824219 4.90203125 -29.65648437 4.8040625 -28.44921875 4.703125 C-20.19199855 3.94079831 -12.73672028 3.10405609 -5.06640625 -0.29296875 C-3 -1 -3 -1 0 0 Z " fill="#030303" transform="translate(1022,900)"/>
<path d="M0 0 C10.56 0 21.12 0 32 0 C32 8.58 32 17.16 32 26 C21.44 26 10.88 26 0 26 C0 17.42 0 8.84 0 0 Z " fill="#1C8DC3" transform="translate(764,465)"/>
</svg>
